<svg xmlns="http://www.w3.org/2000/svg" x="0px" y="0px"
     width="30" height="30"
     viewBox="0 0 172 172"
     style=" fill:#000000;"><g fill="none" fill-rule="nonzero" stroke="none" stroke-width="1" stroke-linecap="butt" stroke-linejoin="miter" stroke-miterlimit="10" stroke-dasharray="" stroke-dashoffset="0" font-family="none" font-weight="none" font-size="none" text-anchor="none" style="mix-blend-mode: normal"><path d="M0,172v-172h172v172z" fill="none"></path><g fill="#3498db"><path d="M0,86c0,47.41968 38.58032,86 86,86c47.41968,0 86,-38.58032 86,-86c0,-47.41968 -38.58032,-86 -86,-86c-47.41968,0 -86,38.58032 -86,86zM88.53353,36.88314l32.25,32.25c0.68587,0.68587 1.0498,1.6027 1.0498,2.53353c0,0.46191 -0.08748,0.92733 -0.27295,1.37175c-0.5529,1.34025 -1.86165,2.21159 -3.31038,2.21159h-7.16667c-0.95182,0 -1.86165,-0.37793 -2.53353,-1.0498l-15.38314,-15.38314v73.76628c0,1.98063 -1.6027,3.58333 -3.58333,3.58333h-7.16667c-1.98063,0 -3.58333,-1.6027 -3.58333,-3.58333v-73.76628l-15.38314,15.38314c-0.67187,0.67187 -1.58171,1.0498 -2.53353,1.0498h-7.16667c-1.44873,0 -2.75749,-0.87134 -3.31038,-2.21159c-0.5599,-1.34375 -0.24845,-2.87996 0.77686,-3.90527l32.25,-32.25c1.39974,-1.39974 3.66732,-1.39974 5.06706,0z"></path></g></g></svg>